<mxfile host="Electron" modified="2024-09-19T14:31:15.032Z" agent="Mozilla/5.0 (Windows NT 10.0; Win64; x64) AppleWebKit/537.36 (KHTML, like Gecko) draw.io/21.6.5 Chrome/114.0.5735.243 Electron/25.3.1 Safari/537.36" etag="Ol04U0z5_TXPcR6Bebzb" version="21.6.5" type="device">
  <diagram name="第 1 页" id="FsXz9FD5qoVGbXdUSHIY">
    <mxGraphModel dx="2208" dy="872" grid="1" gridSize="10" guides="1" tooltips="1" connect="1" arrows="1" fold="1" page="1" pageScale="1" pageWidth="827" pageHeight="1169" math="0" shadow="0">
      <root>
        <mxCell id="0" />
        <mxCell id="1" parent="0" />
        <mxCell id="jDbbAJ2cniHDo7JYD2Wa-42" value="" style="html=1;shadow=0;dashed=0;align=center;verticalAlign=middle;shape=mxgraph.arrows2.arrow;dy=0.6;dx=40;direction=north;notch=0;fillColor=#1ba1e2;fontColor=#ffffff;strokeColor=none;opacity=50;flipV=1;" vertex="1" parent="1">
          <mxGeometry x="-480" y="190" width="90" height="280" as="geometry" />
        </mxCell>
        <mxCell id="jDbbAJ2cniHDo7JYD2Wa-4" value="&lt;font face=&quot;Lucida Console&quot; style=&quot;font-size: 16px;&quot;&gt;&quot;1212&quot;&lt;/font&gt;" style="rounded=0;whiteSpace=wrap;html=1;fillColor=#cce5ff;strokeColor=#36393d;" vertex="1" parent="1">
          <mxGeometry x="-140" y="180" width="100" height="40" as="geometry" />
        </mxCell>
        <mxCell id="jDbbAJ2cniHDo7JYD2Wa-26" style="rounded=0;orthogonalLoop=1;jettySize=auto;html=1;exitX=0.5;exitY=0;exitDx=0;exitDy=0;entryX=0.5;entryY=1;entryDx=0;entryDy=0;endArrow=none;endFill=0;" edge="1" parent="1" source="jDbbAJ2cniHDo7JYD2Wa-7" target="jDbbAJ2cniHDo7JYD2Wa-4">
          <mxGeometry relative="1" as="geometry">
            <mxPoint x="-50" y="430" as="targetPoint" />
          </mxGeometry>
        </mxCell>
        <mxCell id="jDbbAJ2cniHDo7JYD2Wa-7" value="&lt;font face=&quot;Lucida Console&quot; style=&quot;font-size: 16px;&quot;&gt;&quot;212&quot;&lt;/font&gt;" style="rounded=0;whiteSpace=wrap;html=1;fillColor=#cce5ff;strokeColor=#36393d;" vertex="1" parent="1">
          <mxGeometry x="-240" y="280" width="100" height="40" as="geometry" />
        </mxCell>
        <mxCell id="jDbbAJ2cniHDo7JYD2Wa-25" style="rounded=0;orthogonalLoop=1;jettySize=auto;html=1;entryX=0.5;entryY=1;entryDx=0;entryDy=0;exitX=0.5;exitY=0;exitDx=0;exitDy=0;endArrow=none;endFill=0;" edge="1" parent="1" source="jDbbAJ2cniHDo7JYD2Wa-8" target="jDbbAJ2cniHDo7JYD2Wa-4">
          <mxGeometry relative="1" as="geometry" />
        </mxCell>
        <mxCell id="jDbbAJ2cniHDo7JYD2Wa-8" value="&lt;font face=&quot;Lucida Console&quot; style=&quot;font-size: 16px;&quot;&gt;&quot;12&quot;&lt;/font&gt;" style="rounded=0;whiteSpace=wrap;html=1;fillColor=#cce5ff;strokeColor=#36393d;" vertex="1" parent="1">
          <mxGeometry x="-30" y="280" width="100" height="40" as="geometry" />
        </mxCell>
        <mxCell id="jDbbAJ2cniHDo7JYD2Wa-17" style="rounded=0;orthogonalLoop=1;jettySize=auto;html=1;exitX=0.5;exitY=0;exitDx=0;exitDy=0;entryX=0.5;entryY=1;entryDx=0;entryDy=0;endArrow=none;endFill=0;" edge="1" parent="1" source="jDbbAJ2cniHDo7JYD2Wa-9" target="jDbbAJ2cniHDo7JYD2Wa-7">
          <mxGeometry relative="1" as="geometry" />
        </mxCell>
        <mxCell id="jDbbAJ2cniHDo7JYD2Wa-9" value="&lt;font face=&quot;Lucida Console&quot; style=&quot;font-size: 16px;&quot;&gt;&quot;12&quot;&lt;/font&gt;" style="rounded=0;whiteSpace=wrap;html=1;fillColor=#cce5ff;strokeColor=#36393d;" vertex="1" parent="1">
          <mxGeometry x="-363" y="380" width="100" height="40" as="geometry" />
        </mxCell>
        <mxCell id="jDbbAJ2cniHDo7JYD2Wa-18" style="rounded=0;orthogonalLoop=1;jettySize=auto;html=1;exitX=0.5;exitY=0;exitDx=0;exitDy=0;entryX=0.5;entryY=1;entryDx=0;entryDy=0;endArrow=none;endFill=0;" edge="1" parent="1" source="jDbbAJ2cniHDo7JYD2Wa-10" target="jDbbAJ2cniHDo7JYD2Wa-7">
          <mxGeometry relative="1" as="geometry">
            <mxPoint x="-140" y="510" as="targetPoint" />
          </mxGeometry>
        </mxCell>
        <mxCell id="jDbbAJ2cniHDo7JYD2Wa-10" value="&lt;font face=&quot;Lucida Console&quot; style=&quot;font-size: 16px;&quot;&gt;&quot;2&quot;&lt;/font&gt;" style="rounded=0;whiteSpace=wrap;html=1;fillColor=#cce5ff;strokeColor=#36393d;" vertex="1" parent="1">
          <mxGeometry x="-190" y="380" width="100" height="40" as="geometry" />
        </mxCell>
        <mxCell id="jDbbAJ2cniHDo7JYD2Wa-15" style="rounded=0;orthogonalLoop=1;jettySize=auto;html=1;exitX=0.5;exitY=0;exitDx=0;exitDy=0;entryX=0.5;entryY=1;entryDx=0;entryDy=0;endArrow=none;endFill=0;" edge="1" parent="1" source="jDbbAJ2cniHDo7JYD2Wa-11" target="jDbbAJ2cniHDo7JYD2Wa-9">
          <mxGeometry relative="1" as="geometry" />
        </mxCell>
        <mxCell id="jDbbAJ2cniHDo7JYD2Wa-11" value="&lt;font face=&quot;Lucida Console&quot; style=&quot;font-size: 16px;&quot;&gt;&quot;1&quot;&lt;/font&gt;" style="rounded=0;whiteSpace=wrap;html=1;fillColor=#cce5ff;strokeColor=#36393d;" vertex="1" parent="1">
          <mxGeometry x="-463" y="480" width="100" height="40" as="geometry" />
        </mxCell>
        <mxCell id="jDbbAJ2cniHDo7JYD2Wa-16" style="rounded=0;orthogonalLoop=1;jettySize=auto;html=1;exitX=0.5;exitY=0;exitDx=0;exitDy=0;entryX=0.5;entryY=1;entryDx=0;entryDy=0;endArrow=none;endFill=0;" edge="1" parent="1" source="jDbbAJ2cniHDo7JYD2Wa-12" target="jDbbAJ2cniHDo7JYD2Wa-9">
          <mxGeometry relative="1" as="geometry">
            <mxPoint x="-290" y="590" as="targetPoint" />
          </mxGeometry>
        </mxCell>
        <mxCell id="jDbbAJ2cniHDo7JYD2Wa-12" value="&lt;font face=&quot;Lucida Console&quot; style=&quot;font-size: 16px;&quot;&gt;&quot;&quot;&lt;/font&gt;" style="rounded=0;whiteSpace=wrap;html=1;fillColor=#cce5ff;strokeColor=#36393d;" vertex="1" parent="1">
          <mxGeometry x="-350" y="480" width="100" height="40" as="geometry" />
        </mxCell>
        <mxCell id="jDbbAJ2cniHDo7JYD2Wa-19" style="rounded=0;orthogonalLoop=1;jettySize=auto;html=1;exitX=0.5;exitY=0;exitDx=0;exitDy=0;entryX=0.5;entryY=1;entryDx=0;entryDy=0;endArrow=none;endFill=0;" edge="1" parent="1" source="jDbbAJ2cniHDo7JYD2Wa-14" target="jDbbAJ2cniHDo7JYD2Wa-10">
          <mxGeometry relative="1" as="geometry" />
        </mxCell>
        <mxCell id="jDbbAJ2cniHDo7JYD2Wa-14" value="&lt;font face=&quot;Lucida Console&quot; style=&quot;font-size: 16px;&quot;&gt;&quot;&quot;&lt;/font&gt;" style="rounded=0;whiteSpace=wrap;html=1;fillColor=#cce5ff;strokeColor=#36393d;" vertex="1" parent="1">
          <mxGeometry x="-230" y="480" width="100" height="40" as="geometry" />
        </mxCell>
        <mxCell id="jDbbAJ2cniHDo7JYD2Wa-22" style="rounded=0;orthogonalLoop=1;jettySize=auto;html=1;exitX=0.5;exitY=0;exitDx=0;exitDy=0;entryX=0.5;entryY=1;entryDx=0;entryDy=0;endArrow=none;endFill=0;" edge="1" parent="1" source="jDbbAJ2cniHDo7JYD2Wa-20" target="jDbbAJ2cniHDo7JYD2Wa-8">
          <mxGeometry relative="1" as="geometry" />
        </mxCell>
        <mxCell id="jDbbAJ2cniHDo7JYD2Wa-20" value="&lt;font face=&quot;Lucida Console&quot; style=&quot;font-size: 16px;&quot;&gt;&quot;1&quot;&lt;/font&gt;" style="rounded=0;whiteSpace=wrap;html=1;fillColor=#cce5ff;strokeColor=#36393d;" vertex="1" parent="1">
          <mxGeometry x="-50" y="380" width="100" height="40" as="geometry" />
        </mxCell>
        <mxCell id="jDbbAJ2cniHDo7JYD2Wa-24" style="rounded=0;orthogonalLoop=1;jettySize=auto;html=1;exitX=0.5;exitY=0;exitDx=0;exitDy=0;entryX=0.5;entryY=1;entryDx=0;entryDy=0;endArrow=none;endFill=0;" edge="1" parent="1" source="jDbbAJ2cniHDo7JYD2Wa-21" target="jDbbAJ2cniHDo7JYD2Wa-8">
          <mxGeometry relative="1" as="geometry" />
        </mxCell>
        <mxCell id="jDbbAJ2cniHDo7JYD2Wa-21" value="&lt;font face=&quot;Lucida Console&quot; style=&quot;font-size: 16px;&quot;&gt;&quot;&quot;&lt;/font&gt;" style="rounded=0;whiteSpace=wrap;html=1;fillColor=#cce5ff;strokeColor=#36393d;" vertex="1" parent="1">
          <mxGeometry x="110" y="380" width="100" height="40" as="geometry" />
        </mxCell>
        <mxCell id="jDbbAJ2cniHDo7JYD2Wa-29" style="rounded=0;orthogonalLoop=1;jettySize=auto;html=1;exitX=0.5;exitY=0;exitDx=0;exitDy=0;entryX=0.5;entryY=1;entryDx=0;entryDy=0;endArrow=none;endFill=0;" edge="1" parent="1" source="jDbbAJ2cniHDo7JYD2Wa-27" target="jDbbAJ2cniHDo7JYD2Wa-20">
          <mxGeometry relative="1" as="geometry" />
        </mxCell>
        <mxCell id="jDbbAJ2cniHDo7JYD2Wa-27" value="&lt;font face=&quot;Lucida Console&quot; style=&quot;font-size: 16px;&quot;&gt;&quot;&quot;&lt;/font&gt;" style="rounded=0;whiteSpace=wrap;html=1;fillColor=#cce5ff;strokeColor=#36393d;" vertex="1" parent="1">
          <mxGeometry x="-80" y="480" width="100" height="40" as="geometry" />
        </mxCell>
        <mxCell id="jDbbAJ2cniHDo7JYD2Wa-40" style="rounded=0;orthogonalLoop=1;jettySize=auto;html=1;exitX=0.5;exitY=0;exitDx=0;exitDy=0;entryX=0.5;entryY=1;entryDx=0;entryDy=0;endArrow=none;endFill=0;" edge="1" parent="1" source="jDbbAJ2cniHDo7JYD2Wa-30" target="jDbbAJ2cniHDo7JYD2Wa-31">
          <mxGeometry relative="1" as="geometry" />
        </mxCell>
        <mxCell id="jDbbAJ2cniHDo7JYD2Wa-30" value="&lt;font face=&quot;Lucida Console&quot; style=&quot;font-size: 16px;&quot;&gt;&quot;1&quot;&lt;/font&gt;" style="rounded=0;whiteSpace=wrap;html=1;fillColor=#ffcc99;strokeColor=#36393d;" vertex="1" parent="1">
          <mxGeometry x="280" y="480" width="100" height="40" as="geometry" />
        </mxCell>
        <mxCell id="jDbbAJ2cniHDo7JYD2Wa-38" style="rounded=0;orthogonalLoop=1;jettySize=auto;html=1;exitX=0.5;exitY=0;exitDx=0;exitDy=0;entryX=0.5;entryY=1;entryDx=0;entryDy=0;endArrow=none;endFill=0;" edge="1" parent="1" source="jDbbAJ2cniHDo7JYD2Wa-31" target="jDbbAJ2cniHDo7JYD2Wa-32">
          <mxGeometry relative="1" as="geometry" />
        </mxCell>
        <mxCell id="jDbbAJ2cniHDo7JYD2Wa-31" value="&lt;font face=&quot;Lucida Console&quot; style=&quot;font-size: 16px;&quot;&gt;&quot;12&quot;&lt;/font&gt;" style="rounded=0;whiteSpace=wrap;html=1;fillColor=#ffcc99;strokeColor=#36393d;" vertex="1" parent="1">
          <mxGeometry x="330" y="380" width="100" height="40" as="geometry" />
        </mxCell>
        <mxCell id="jDbbAJ2cniHDo7JYD2Wa-36" style="rounded=0;orthogonalLoop=1;jettySize=auto;html=1;entryX=0.5;entryY=1;entryDx=0;entryDy=0;endArrow=none;endFill=0;" edge="1" parent="1" source="jDbbAJ2cniHDo7JYD2Wa-32" target="jDbbAJ2cniHDo7JYD2Wa-33">
          <mxGeometry relative="1" as="geometry" />
        </mxCell>
        <mxCell id="jDbbAJ2cniHDo7JYD2Wa-32" value="&lt;font face=&quot;Lucida Console&quot; style=&quot;font-size: 16px;&quot;&gt;&quot;121&quot;&lt;/font&gt;" style="rounded=0;whiteSpace=wrap;html=1;fillColor=#ffcc99;strokeColor=#36393d;" vertex="1" parent="1">
          <mxGeometry x="390" y="280" width="100" height="40" as="geometry" />
        </mxCell>
        <mxCell id="jDbbAJ2cniHDo7JYD2Wa-33" value="&lt;font face=&quot;Lucida Console&quot; style=&quot;font-size: 16px;&quot;&gt;&quot;1212&quot;&lt;/font&gt;" style="rounded=0;whiteSpace=wrap;html=1;fillColor=#ffcc99;strokeColor=#36393d;" vertex="1" parent="1">
          <mxGeometry x="474" y="180" width="100" height="40" as="geometry" />
        </mxCell>
        <mxCell id="jDbbAJ2cniHDo7JYD2Wa-37" style="rounded=0;orthogonalLoop=1;jettySize=auto;html=1;exitX=0.5;exitY=0;exitDx=0;exitDy=0;entryX=0.5;entryY=1;entryDx=0;entryDy=0;endArrow=none;endFill=0;" edge="1" parent="1" source="jDbbAJ2cniHDo7JYD2Wa-34" target="jDbbAJ2cniHDo7JYD2Wa-33">
          <mxGeometry relative="1" as="geometry">
            <mxPoint x="500" y="440" as="targetPoint" />
          </mxGeometry>
        </mxCell>
        <mxCell id="jDbbAJ2cniHDo7JYD2Wa-34" value="&lt;font face=&quot;Lucida Console&quot; style=&quot;font-size: 16px;&quot;&gt;&quot;12&quot;&lt;/font&gt;" style="rounded=0;whiteSpace=wrap;html=1;fillColor=#ffcc99;strokeColor=#36393d;" vertex="1" parent="1">
          <mxGeometry x="570" y="280" width="100" height="40" as="geometry" />
        </mxCell>
        <mxCell id="jDbbAJ2cniHDo7JYD2Wa-39" style="rounded=0;orthogonalLoop=1;jettySize=auto;html=1;exitX=0.5;exitY=0;exitDx=0;exitDy=0;entryX=0.5;entryY=1;entryDx=0;entryDy=0;endArrow=none;endFill=0;" edge="1" parent="1" source="jDbbAJ2cniHDo7JYD2Wa-35" target="jDbbAJ2cniHDo7JYD2Wa-32">
          <mxGeometry relative="1" as="geometry" />
        </mxCell>
        <mxCell id="jDbbAJ2cniHDo7JYD2Wa-35" value="&lt;font face=&quot;Lucida Console&quot; style=&quot;font-size: 16px;&quot;&gt;&quot;1&quot;&lt;/font&gt;" style="rounded=0;whiteSpace=wrap;html=1;fillColor=#ffcc99;strokeColor=#36393d;" vertex="1" parent="1">
          <mxGeometry x="460" y="380" width="100" height="40" as="geometry" />
        </mxCell>
        <mxCell id="jDbbAJ2cniHDo7JYD2Wa-43" value="&lt;font face=&quot;Comic Sans MS&quot; style=&quot;font-size: 22px;&quot;&gt;Top-Down&lt;/font&gt;" style="text;html=1;align=center;verticalAlign=middle;resizable=0;points=[];autosize=1;strokeColor=none;fillColor=none;" vertex="1" parent="1">
          <mxGeometry x="-495" y="150" width="120" height="40" as="geometry" />
        </mxCell>
        <mxCell id="jDbbAJ2cniHDo7JYD2Wa-44" value="" style="html=1;shadow=0;dashed=0;align=center;verticalAlign=middle;shape=mxgraph.arrows2.arrow;dy=0.6;dx=40;direction=north;notch=0;fillColor=#f0a30a;fontColor=#000000;strokeColor=none;opacity=40;flipV=0;" vertex="1" parent="1">
          <mxGeometry x="660" y="190" width="90" height="280" as="geometry" />
        </mxCell>
        <mxCell id="jDbbAJ2cniHDo7JYD2Wa-45" value="&lt;font face=&quot;Comic Sans MS&quot; style=&quot;font-size: 22px;&quot;&gt;Bottom-Up&lt;br&gt;&lt;/font&gt;" style="text;html=1;align=center;verticalAlign=middle;resizable=0;points=[];autosize=1;strokeColor=none;fillColor=none;" vertex="1" parent="1">
          <mxGeometry x="630" y="480" width="140" height="40" as="geometry" />
        </mxCell>
      </root>
    </mxGraphModel>
  </diagram>
</mxfile>
